name Walk1.mot
datacolumns 19
datarows 17
range 1.96000000 2.04000000
endheader

                time	   L_ground_force_vx	   L_ground_force_vy	   L_ground_force_vz	   L_ground_force_px	   L_ground_force_py	   L_ground_force_pz	   R_ground_force_vx	   R_ground_force_vy	   R_ground_force_vz	   R_ground_force_px	   R_ground_force_py	   R_ground_force_pz	   L_ground_torque_x	   L_ground_torque_y	   L_ground_torque_z	   R_ground_torque_x	   R_ground_torque_y	   R_ground_torque_z	
          1.96000000	          4.00179428	        709.30069637	         43.31777302	         -0.25907224	          0.00000000	         -0.03666210	         -0.06188177	          0.60090886	          0.03122522	          0.00011995	          0.00000000	          0.00011019	          0.00000000	          0.69659221	          0.00000000	          0.00000000	         -0.00527538	          0.00000000	
          1.96500000	          5.94686597	        714.76150560	         43.34887028	         -0.25729648	          0.00000000	         -0.03647058	         -0.07234904	          0.60640940	          0.03071770	          0.00009196	          0.00000000	          0.00008134	          0.00000000	          0.72881848	          0.00000000	          0.00000000	         -0.00303661	          0.00000000	
          1.97000000	          8.05934147	        720.46990981	         43.27055862	         -0.25558286	          0.00000000	         -0.03624123	         -0.07974883	          0.54019953	          0.02613793	          0.00003698	          0.00000000	          0.00002633	          0.00000000	          0.74984474	          0.00000000	          0.00000000	          0.00082900	          0.00000000	
          1.97500000	         10.36147183	        726.43233422	         43.07620931	         -0.25394172	          0.00000000	         -0.03597354	         -0.08145264	          0.37033142	          0.01577280	         -0.00005332	          0.00000000	         -0.00006270	          0.00000000	          0.75935549	          0.00000000	          0.00000000	          0.00675470	          0.00000000	
          1.98000000	         12.87232021	        732.64511199	         42.76191479	         -0.25238218	          0.00000000	         -0.03566880	         -0.07406413	          0.05977027	         -0.00233562	         -0.00018756	          0.00000000	         -0.00019381	          0.00000000	          0.75725658	          0.00000000	          0.00000000	          0.01516208	          0.00000000	
          1.98500000	         15.60662620	        739.09378847	         42.32523669	         -0.25091134	          0.00000000	         -0.03533011	         -0.05340844	         -0.43188383	         -0.03028547	         -0.00037376	          0.00000000	         -0.00037435	          0.00000000	          0.74343024	          0.00000000	          0.00000000	          0.02640247	          0.00000000	
          1.99000000	         18.57481904	        745.74426513	         41.76466582	         -0.24953317	          0.00000000	         -0.03496126	         -0.01461163	         -1.14529585	         -0.07013485	         -0.00061801	          0.00000000	         -0.00060971	          0.00000000	          0.71775862	          0.00000000	          0.00000000	          0.04067433	          0.00000000	
          1.99500000	         21.78269514	        752.53416290	         41.07881019	         -0.24824709	          0.00000000	         -0.03456757	          0.04768936	         -2.11652895	         -0.12362557	         -0.00092268	          0.00000000	         -0.00090153	          0.00000000	          0.67982950	          0.00000000	          0.00000000	          0.05791330	          0.00000000	
          2.00000000	         25.23066108	        759.37031272	         40.26738037	         -0.24704858	          0.00000000	         -0.03415528	          0.13895882	         -3.37002268	         -0.19179141	         -0.00128399	          0.00000000	         -0.00124541	          0.00000000	          0.62905147	          0.00000000	          0.00000000	          0.07765306	          0.00000000	
          2.00500000	         28.91376119	        766.13199751	         39.33477971	         -0.24593024	          0.00000000	         -0.03373009	          0.26414505	         -4.90907695	         -0.27443457	         -0.00168905	          0.00000000	         -0.00162805	          0.00000000	          0.56491278	          0.00000000	          0.00000000	          0.09885804	          0.00000000	
          2.01000000	         32.82282360	        772.67949476	         38.29368622	         -0.24488226	          0.00000000	         -0.03329721	          0.42678140	         -6.70361992	         -0.36946114	         -0.00211238	          0.00000000	         -0.00202395	          0.00000000	          0.48760725	          0.00000000	          0.00000000	          0.11973268	          0.00000000	
          2.01500000	         36.94661693	        778.86226629	         37.16472761	         -0.24389416	          0.00000000	         -0.03285994	          0.62775910	         -8.67524923	         -0.47207872	         -0.00251200	          0.00000000	         -0.00239171	          0.00000000	          0.39832704	          0.00000000	          0.00000000	          0.13751778	          0.00000000	
          2.02000000	         41.27416080	        784.52433845	         35.97243794	         -0.24295651	          0.00000000	         -0.03241958	          0.86373933	        -10.67986614	         -0.57387793	         -0.00282537	          0.00000000	         -0.00267020	          0.00000000	          0.29902577	          0.00000000	          0.00000000	          0.14829169	          0.00000000	
          2.02500000	         45.79653898	        789.50413330	         34.74176836	         -0.24206158	          0.00000000	         -0.03197602	          1.12519879	        -12.48869770	         -0.66184628	         -0.00296557	          0.00000000	         -0.00277518	          0.00000000	          0.19204435	          0.00000000	          0.00000000	          0.14680378	          0.00000000	
          2.03000000	         50.50816049	        793.63343321	         33.49574738	         -0.24120258	          0.00000000	         -0.03152845	          1.39414476	        -13.76914581	         -0.71739812	         -0.00281846	          0.00000000	         -0.00259661	          0.00000000	          0.07996226	          0.00000000	          0.00000000	          0.12637854	          0.00000000	
          2.03500000	         55.40562744	        796.74048927	         32.25394731	         -0.24037319	          0.00000000	         -0.03107729	          1.64159645	        -14.06772830	         -0.71554920	         -0.00224147	          0.00000000	         -0.00199793	          0.00000000	         -0.03446873	          0.00000000	          0.00000000	          0.07894180	          0.00000000	
          2.04000000	         60.48362993	        798.65215050	         31.03120166	         -0.23956742	          0.00000000	         -0.03062399	          1.82501267	        -12.79838585	         -0.62441871	         -0.00106529	          0.00000000	         -0.00081795	          0.00000000	         -0.14826146	          0.00000000	          0.00000000	         -0.00476582	          0.00000000	
